/* XPM */
static char *b4add1a4b82b4616bf2ace56a12ebbde6HzpYSZKCNW2ERA0[] = {
/* columns rows colors chars-per-pixel */
"64 64 9 1 ",
"  c None",
". c #101010",
"X c #304068",
"o c #F8D858",
"O c #4898C8",
"+ c #BCC0C0",
"@ c #88C0F0",
"# c #E6EAEA",
"$ c #E6EEF8",
/* pixels */
"                 .............    .............                 ",
"                 .............    .............                 ",
"                 .............    .............                 ",
"                 .............    .............                 ",
"             ....OOOOoooooOOOO....OOOOoooooOOOO....             ",
"             ....OOOOoooooOOOO....OOOOoooooOOOO....             ",
"             ....OOOOoooooOOOO....OOOOoooooOOOO....             ",
"             ....OOOOoooooOOOO....OOOOoooooOOOO....             ",
"             ....OOOOoooooOOOO....OOOOoooooOOOO....             ",
"             ....oooo#####OOOOXXXXOOOO#####oooo....             ",
"             ....oooo#####OOOOXXXXOOOO#####oooo....             ",
"             ....oooo#####OOOOXXXXOOOO#####oooo....             ",
"             ....oooo#####OOOOXXXXOOOO#####oooo....             ",
"             ....oooo.....@@@@OOOO@@@@.....oooo....             ",
"             ....oooo.....@@@@OOOO@@@@.....oooo....             ",
"             ....oooo.....@@@@OOOO@@@@.....oooo....             ",
"             ....oooo.....@@@@OOOO@@@@.....oooo....             ",
"         ....XXXXoooo.....@@@@OOOO@@@@.....ooooXXXX....         ",
"         ....XXXXoooo.....@@@@OOOO@@@@.....ooooXXXX....         ",
"         ....XXXXoooo.....@@@@OOOO@@@@.....ooooXXXX....         ",
"         ....XXXXoooo.....@@@@OOOO@@@@.....ooooXXXX....         ",
"    XXXXX....@@@@oooo.....@@@@XXXX@@@@.....oooo@@@@....XXXXX    ",
"    XXXXX....@@@@oooo.....@@@@XXXX@@@@.....oooo@@@@....XXXXX    ",
"    XXXXX....@@@@oooo.....@@@@XXXX@@@@.....oooo@@@@....XXXXX    ",
"    XXXXX....@@@@oooo.....@@@@XXXX@@@@.....oooo@@@@....XXXXX    ",
"    XXXXX....@@@@oooo.....@@@@XXXX@@@@.....oooo@@@@....XXXXX    ",
"XXXX#####XXXX@@@@@@@@@@@@@OOOOXXXXOOOO@@@@@@@@@@@@@XXXX#####XXXX",
"XXXX#####XXXX@@@@@@@@@@@@@OOOOXXXXOOOO@@@@@@@@@@@@@XXXX#####XXXX",
"XXXX#####XXXX@@@@@@@@@@@@@OOOOXXXXOOOO@@@@@@@@@@@@@XXXX#####XXXX",
"XXXX#####XXXX@@@@@@@@@@@@@OOOOXXXXOOOO@@@@@@@@@@@@@XXXX#####XXXX",
"XXXX#########....OOOOOOOOO####OOOO####OOOOOOOOO....#########XXXX",
"XXXX#########....OOOOOOOOO####OOOO####OOOOOOOOO....#########XXXX",
"XXXX#########....OOOOOOOOO####OOOO####OOOOOOOOO....#########XXXX",
"XXXX#########....OOOOOOOOO####OOOO####OOOOOOOOO....#########XXXX",
"XXXX#############....OOOOOOOOOOOOOOOOOOOOOO....#############XXXX",
"XXXX#############....OOOOOOOOOOOOOOOOOOOOOO....#############XXXX",
"XXXX#############....OOOOOOOOOOOOOOOOOOOOOO....#############XXXX",
"XXXX#############....OOOOOOOOOOOOOOOOOOOOOO....#############XXXX",
"    XXXXXXXXX####++++......................++++####XXXXXXXXX    ",
"    XXXXXXXXX####++++......................++++####XXXXXXXXX    ",
"    XXXXXXXXX####++++......................++++####XXXXXXXXX    ",
"    XXXXXXXXX####++++......................++++####XXXXXXXXX    ",
"    XXXXXXXXX####++++......................++++####XXXXXXXXX    ",
"         XXXXOOOO....#####++++++++++++$$$$$....OOOOXXXX         ",
"         XXXXOOOO....#####++++++++++++$$$$$....OOOOXXXX         ",
"         XXXXOOOO....#####++++++++++++$$$$$....OOOOXXXX         ",
"         XXXXOOOO....#####++++++++++++$$$$$....OOOOXXXX         ",
"         ....OOOOXXXX#####....OOOO....#####XXXXOOOO....         ",
"         ....OOOOXXXX#####....OOOO....#####XXXXOOOO....         ",
"         ....OOOOXXXX#####....OOOO....#####XXXXOOOO....         ",
"         ....OOOOXXXX#####....OOOO....#####XXXXOOOO....         ",
"             ....OOOO......................OOOO....             ",
"             ....OOOO......................OOOO....             ",
"             ....OOOO......................OOOO....             ",
"             ....OOOO......................OOOO....             ",
"             ....OOOOOOOOO....    ....OOOOOOOOO....             ",
"             ....OOOOOOOOO....    ....OOOOOOOOO....             ",
"             ....OOOOOOOOO....    ....OOOOOOOOO....             ",
"             ....OOOOOOOOO....    ....OOOOOOOOO....             ",
"             ....OOOOOOOOO....    ....OOOOOOOOO....             ",
"                 .............    .............                 ",
"                 .............    .............                 ",
"                 .............    .............                 ",
"                 .............    .............                 "
};
