/* XPM */
static char *_88bbf6848774656cd2930659e01567aqHmL6oINo62rJv5Q[] = {
/* columns rows colors chars-per-pixel */
"64 64 3 1 ",
"  c #41B48B",
". c #73CDA4",
"X c #A4E6C5",
/* pixels */
"................................................................",
"................................................................",
"................................................................",
"................................................................",
"................................................................",
".................    ...........................................",
".................    ...........................................",
".................    ...........................................",
".................    ...........................................",
"....     ........    .........    ..............................",
"....     ........    .........    ..............................",
"....     ........    .........    ..............................",
"....     ........    .........    ..............................",
"....     ........    .........    ..............................",
".........    .............    ..................................",
".........    .............    ..................................",
".........    .............    ..................................",
".........    .............    ..................................",
"................................................................",
"................................................................",
"................................................................",
"................................................................",
"................................................................",
"................................................................",
"................................................................",
"................................................................",
"................................................................",
"................................................................",
"................................................................",
"................................................................",
"................................................................",
"................................................................",
"...........................................XXXX.................",
"...........................................XXXX.................",
"...........................................XXXX.................",
"...........................................XXXX.................",
"...........................................XXXX.................",
"..............................XXXX.........XXXX........XXXXX....",
"..............................XXXX.........XXXX........XXXXX....",
"..............................XXXX.........XXXX........XXXXX....",
"..............................XXXX.........XXXX........XXXXX....",
"..................................XXXX.............XXXX.........",
"..................................XXXX.............XXXX.........",
"..................................XXXX.............XXXX.........",
"..................................XXXX.............XXXX.........",
"..................................XXXX.............XXXX.........",
"................................................................",
"................................................................",
"................................................................",
"................................................................",
"................................................................",
"................................................................",
"................................................................",
"................................................................",
"................................................................",
"................................................................",
"................................................................",
"................................................................",
"................................................................",
"................................................................",
"................................................................",
"................................................................",
"................................................................",
"................................................................"
};
