/* XPM */
static char *eeda4d1255ac472d82457569388c8ea5xRqsmu6ae4TYDciT[] = {
/* columns rows colors chars-per-pixel */
"64 64 6 1 ",
"  c #395A10",
". c #399431",
"X c #18A46A",
"o c #41B48B",
"O c #73CDA4",
"+ c #A4E6C5",
/* pixels */
"OOOOOOOOOOOOOOOOOOOOOOOOOOOOOOOOOOOOOOOOOOOOOOOOOOOOOOOOOOOOOOOO",
"OOOOOOOOOOOOOOOOOOOOOOOOOOOOOOOOOOOOOOOOOOOOOOOOOOOOOOOOOOOOOOOO",
"OOOOOOOOOOOOOOOOOOOOOOOOOOOOOOOOOOOOOOOOOOOOOOOOOOOOOOOOOOOOOOOO",
"OOOOOOOOOOOOOOOOOOOOOOOOOOOOOOOOOOOOOOOOOOOOOOOOOOOOOOOOOOOOOOOO",
"OOOOOOOOOOOooooOOOOOOOOOOOoooo....OOOOOOOOOOOooooOOOOOOOOOOOOOOO",
"OOOOOOOOOOOooooOOOOOOOOOOOoooo....OOOOOOOOOOOooooOOOOOOOOOOOOOOO",
"OOOOOOOOOOOooooOOOOOOOOOOOoooo....OOOOOOOOOOOooooOOOOOOOOOOOOOOO",
"OOOOOOOOOOOooooOOOOOOOOOOOoooo....OOOOOOOOOOOooooOOOOOOOOOOOOOOO",
"OOOOooooOOOOOOOOOOOOOOOooo....++++....OOOOOOOOOOOOOOOOOOooooOOOO",
"OOOOooooOOOOOOOOOOOOOOOooo....++++....OOOOOOOOOOOOOOOOOOooooOOOO",
"OOOOooooOOOOOOOOOOOOOOOooo....++++....OOOOOOOOOOOOOOOOOOooooOOOO",
"OOOOOOOO...........ooooooo++++++++....ooo    ....    OOOOOOOOOOO",
"OOOOOOOO...........ooooooo++++++++....ooo    ....    OOOOOOOOOOO",
"OOOOOOOO...........ooooooo++++++++....ooo    ....    OOOOOOOOOOO",
"OOOOOOOO...........ooooooo++++++++....ooo    ....    OOOOOOOOOOO",
"OOOOXXXX+++++++++++.......++++OOOO....   ++++++++++++   ooooOOOO",
"OOOOXXXX+++++++++++.......++++OOOO....   ++++++++++++   ooooOOOO",
"OOOOXXXX+++++++++++.......++++OOOO....   ++++++++++++   ooooOOOO",
"OOOOXXXX+++++++++++.......++++OOOO....   ++++++++++++   ooooOOOO",
"OOOOOOOOXXX++++++++++++...OOOOOOOO    oooOOOO++++    ...ooooOOOO",
"OOOOOOOOXXX++++++++++++...OOOOOOOO    oooOOOO++++    ...ooooOOOO",
"OOOOOOOOXXX++++++++++++...OOOOOOOO    oooOOOO++++    ...ooooOOOO",
"OOOOOOOOXXX++++++++++++...OOOOOOOO    oooOOOO++++    ...ooooOOOO",
"OOOOOOOOOOOXXXXOOOOOOOOOOO....oooo    ooooooo........oooOOOOOOOO",
"OOOOOOOOOOOXXXXOOOOOOOOOOO....oooo    ooooooo........oooOOOOOOOO",
"OOOOOOOOOOOXXXXOOOOOOOOOOO....oooo    ooooooo........oooOOOOOOOO",
"OOOOXXXXXXXXXXX........OOO............ooo               OOOOOOOO",
"OOOOXXXXXXXXXXX........OOO............ooo               OOOOOOOO",
"OOOOXXXXXXXXXXX........OOO............ooo               OOOOOOOO",
"OOOOXXXXXXXXXXX........OOO............ooo               OOOOOOOO",
"....+++++++++++OOOO.......OOOO    oooo   ooooOOOOOOOOOOO    ....",
"....+++++++++++OOOO.......OOOO    oooo   ooooOOOOOOOOOOO    ....",
"....+++++++++++OOOO.......OOOO    oooo   ooooOOOOOOOOOOO    ....",
"....+++++++++++OOOO.......OOOO    oooo   ooooOOOOOOOOOOO    ....",
"oooo....+++OOOOOOOOoooo.......        ooooooooooooooo   oooooooo",
"oooo....+++OOOOOOOOoooo.......        ooooooooooooooo   oooooooo",
"oooo....+++OOOOOOOOoooo.......        ooooooooooooooo   oooooooo",
"oooo....+++OOOOOOOOoooo.......        ooooooooooooooo   oooooooo",
"OOOOoooo...ooooooooooooooo        ...........        .......OOOO",
"OOOOoooo...ooooooooooooooo        ...........        .......OOOO",
"OOOOoooo...ooooooooooooooo        ...........        .......OOOO",
"OOOOOOOOooo........                              .......ooooOOOO",
"OOOOOOOOooo........                              .......ooooOOOO",
"OOOOOOOOooo........                              .......ooooOOOO",
"OOOOOOOOooo........                              .......ooooOOOO",
"OOOOoooo...OOOOOOOOoooo   ....        ...oooooooo    oooOOOOOOOO",
"OOOOoooo...OOOOOOOOoooo   ....        ...oooooooo    oooOOOOOOOO",
"OOOOoooo...OOOOOOOOoooo   ....        ...oooooooo    oooOOOOOOOO",
"OOOOoooo...OOOOOOOOoooo   ....        ...oooooooo    oooOOOOOOOO",
"OOOO....OOOOOOOoooo...............    ...........oooo   ooooOOOO",
"OOOO....OOOOOOOoooo...............    ...........oooo   ooooOOOO",
"OOOO....OOOOOOOoooo...............    ...........oooo   ooooOOOO",
"OOOO....OOOOOOOoooo...............    ...........oooo   ooooOOOO",
"oooo....               ooooooooooo....                  ....oooo",
"oooo....               ooooooooooo....                  ....oooo",
"oooo....               ooooooooooo....                  ....oooo",
"oooooooo...............   oooo....    ......................oooo",
"oooooooo...............   oooo....    ......................oooo",
"oooooooo...............   oooo....    ......................oooo",
"oooooooo...............   oooo....    ......................oooo",
"OOOOOOOOooooooo...........        ...........ooooooooOOOOOOOOOOO",
"OOOOOOOOooooooo...........        ...........ooooooooOOOOOOOOOOO",
"OOOOOOOOooooooo...........        ...........ooooooooOOOOOOOOOOO",
"OOOOOOOOooooooo...........        ...........ooooooooOOOOOOOOOOO"
};
