/* XPM */
static char *d1a41c0387fa447db24c756b923c5c0bo7qOEsmRyYgj8TXH[] = {
/* columns rows colors chars-per-pixel */
"64 64 6 1 ",
"  c gray48",
". c #41B48B",
"X c #73CDA4",
"o c gray61",
"O c #A4E6C5",
"+ c gray82",
/* pixels */
"XXXXXXXXXXXXXXXXXXXXXXXXXXXXXXXXXXXXXXXXXXXXXXXXXXXXXXXXXXXXXXXX",
"XXXXXXXXXXXXXXXXXXXXXXXXXXXXXXXXXXXXXXXXXXXXXXXXXXXXXXXXXXXXXXXX",
"XXXXXXXXXXXXXXXXXXXXXXXXXXXXXXXXXXXXXXXXXXXXXXXXXXXXXXXXXXXXXXXX",
"XXXXXXXXXXXXXXXXXXXXXXXXXXXXXXXXXXXXXXXXXXXXXXXXXXXXXXXXXXXXXXXX",
"XXXXXXXXXXXXXXXXXXXXXXXXXXXXXXXXXXXXXXXXXXXXXXXXXXXXXXXXXXXXXXXX",
"XXXXXXXXXXXXXXXXX....XXXXXXXXXXXXXXXXXXXXXXXXXXXXXXXXXXXXXXXXXXX",
"XXXXXXXXXXXXXXXXX....XXX    XXXXXXXXXXXX     XXXXXXXXXXXXXXXXXXX",
"XXXXXXXXXXXXXXXXX....XX oooo  XXXXXXXX  o+++o  XXXXXXXXXXXXXXXXX",
"XXXXXXXXXXXXXXXXX....X oo++oo       X o+++++++o XXXXXXXXXXXXXXXX",
"XXXX.....XXXXXXXX....X o++++ooooo o  o+++++++++o XXXXXXXXXXXXXXX",
"XXXX.....XXXXXXXX.... oo++++++++o  o +++++++oo++ XXXXXXXXXXXXXXX",
"XXXX.....XXXXXXXX.    o++++++++++o   +++++++++o+o XXXXXXXXXXXXXX",
"XXXX.....XXXXXXXX  oo o+++++++++++  o++++++++++o+ XXXXXXXXXXXXXX",
"XXXX.....XXXXXXXX oo  o++++oo+++++o oo+++++++++o+ XXXXXXXXXXXXXX",
"XXXXXXXXX....XXX       o++ooooo+++o  o+++++++++o+ XXXXXXXXXXXXXX",
"XXXXXXXXX....X  o++++o ooo+oooooo+o  oo+++++++o +  XXXXXXXXXXXXX",
"XXXXXXXXX.... o++++++++o oooooooooo   ooo+++oo +o  XXXXXXXXXXXXX",
"XXXXXXXXX.... +++++++++++ooo      o    oooooo  +   XXXXXXXXXXXXX",
"XXXXXXXXXXXX o++ooooo++++o  o++++o  o    ooo  +o   XXXXXXXXXXXXX",
"XXXXXXXXXXXX ++ooo+++o++oo o++++++o  oo      +o   XXXXXXXXXXXXXX",
"XXXXXXXXXXXX ++oo+++++++o o+++++++++++ooooooo     XXXXXXXXXXXXXX",
"XXXXXXXXXXXX +ooo++++++oo o++++++++++++++ooo   o+o XXXXXXXXXXXXX",
"XXXXXXXXXXXX +oooo+++++oo o+oo++++++++++++    o+++o XXXXXXXXXXXX",
"XXXXXXXXXXXX ooo ooo++oo ooo++++++++++++++o   ooo++ XXXXXXXXXXXX",
"XXXXXXXXXXXX ooo oooooo o++++++++++++++++++oo  oooo+ XXXXXXXXXXX",
"XXXXXXXXXXXX  oo  oooo  ++++++++++++o++++++ooo  oooo XXXXXXXXXXX",
"XXXXXXXXXXXX  ooo      ++++++++++++o++++++++oo   ooo XXXXXXXXXXX",
"XXXXXXXXXXXXX  oooo  o++++++++++++oo++++++++ooo   oo XXXXXXXXXXX",
"XXXXXXXXXXXXX  oo+++oo++++++++++++oo++++++++ooo   o XXXXXXXXXXXX",
"XXXXXXXXXXXX     o+++o++++++++++++ooo++++++oooo    XXXXXXXXXXXXX",
"XXXXXXXXXXX  o++o o++++++++++++++++oooo+++ooooo      XXXXXXXXXXX",
"XXXXXXXXXX  o++++o o++++++++++o++++oooo+oooooo  oooo  XXXXXXXXXX",
"XXXXXXXXXX o++++++oo++o++++++o+++++oo o+oooo   oooooo XXXXXXXXXX",
"XXXXXXXXXX +++o++++o+++o+++++o+++++o  o++      oooooo  XXXXXXXXX",
"XXXXXXXXXX ++o+++++o+++oo+++ooo+++oo oo++         ooo+ XXXXXXXXX",
"XXXXXXXXXX o+o++++o++++oooooo  o++oo ++++oo   o+++ oo+ XXXXXXXXX",
"XXXXXXXXXX  o+oooo++++++oooo    ++oo +++++oo o++++o o+ XXXXXXXXX",
"XXXXXXXXXXX oo+++++++++++oo     ++   +++++++o++++++ ++ OOOOOXXXX",
"XXXXXXXXXXX  ooo++++++oo++o   o ++  o++++++++++++++o++ OOOOOXXXX",
"XXXXXXXXXXXX  o+++++oo++o++o ooo++  o++++++++++++++++  OOOOOXXXX",
"XXXXXXXXXXXX  o++++oo+++++++oo+o++  +++++++++o++++++o  OOOOOXXXX",
"XXXXXXXXXXXX  o++++o+++++++++o++++ o+++++++++ o++++o o XXXXXXXXX",
"XXXXXXXXXXXX  o++++o+++++++++o++++oo++++++++oo      oo XXXXXXXXX",
"XXXXXXXXXXXXX o++++o+++++++++o+++++o++++o++++oooooooo OXXXXXXXXX",
"XXXXXXXXXXXXX oo+++ o++++++++++++++o++++oo++o  ooo   OOXXXXXXXXX",
"XXXXXXXXXXXXXX o+o++ o+++++++++++++o++++oooo      XOOOOXXXXXXXXX",
"XXXXXXXXXXXXXX o+ o++ +++++++++++++o+++o oo o++o XXXXXXXXXXXXXXX",
"XXXXXXXXXXXXXXX o oooo+++++++++++++o+++o o o++++o XXXXXXXXXXXXXX",
"XXXXXXXXXXXXXXX o ooooo++o+++++++++oo++  + ++++++ XXXXXXXXXXXXXX",
"XXXXXXXXXXXXXXXX   ooooooo+o+++++++oo++  + ++++++ XXXXXXXXXXXXXX",
"XXXXXXXXXXXXXXXX   ooooooo+oo+++o+ooo++  + o++++o XXXXXXXXXXXXXX",
"XXXXXXXXXXXXXXXXX   oooooo+oo+++ooooo+o  +o o++o XXXXXXXXXXXXXXX",
"XXXXXXXXXXXXXXXXX o  oooo  oooooooooo o  ooo    XXXXXXXXXXXXXXXX",
"XXXXXXXXXXXXXXXXX oo     o  ooooooooo   ooooo  XXXXXXXXXXXXXXXXX",
"XXXXXXXXXXXXXXXXX  ooo++oo    ooooooo   ooooo  XXXXXXXXXXXXXXXXX",
"XXXXXXXXXXXXXXXXXX  ooooo     oooooo     ooo   XXXXXXXXXXXXXXXXX",
"XXXXXXXXXXXXXXXXXX    oo       oooo      ooo   XXXXXXXXXXXXXXXXX",
"XXXXXXXXXXXXXXXXXXX      XX     o     X  o    XXXXXXXXXXXXXXXXXX",
"XXXXXXXXXXXXXXXXXXXXX   XXXX         XX      XXXXXXXXXXXXXXXXXXX",
"XXXXXXXXXXXXXXXXXXXXXXXXXXXXXXXXXXXXXXXXXXXXXXXXXXXXXXXXXXXXXXXX",
"XXXXXXXXXXXXXXXXXXXXXXXXXXXXXXXXXXXXXXXXXXXXXXXXXXXXXXXXXXXXXXXX",
"XXXXXXXXXXXXXXXXXXXXXXXXXXXXXXXXXXXXXXXXXXXXXXXXXXXXXXXXXXXXXXXX",
"XXXXXXXXXXXXXXXXXXXXXXXXXXXXXXXXXXXXXXXXXXXXXXXXXXXXXXXXXXXXXXXX",
"XXXXXXXXXXXXXXXXXXXXXXXXXXXXXXXXXXXXXXXXXXXXXXXXXXXXXXXXXXXXXXXX"
};
