/* XPM */
static char *_af09803e47248b4ba375b893c71f78fhGcK9eU3GlZQIYhk[] = {
/* columns rows colors chars-per-pixel */
"64 64 35 1 ",
"  c black",
". c #040406",
"X c #0F131F",
"o c gray10",
"O c #112233",
"+ c #7F4A19",
"@ c #001E49",
"# c #242C47",
"$ c #333344",
"% c #384646",
"& c #114477",
"* c #5A5A5A",
"= c #861312",
"- c #D03535",
"; c #778877",
": c #E49800",
"> c #CA806A",
", c #FFD940",
"< c #0C4596",
"1 c #41B48B",
"2 c #73CDA4",
"3 c #00C2E4",
"4 c #8B879A",
"5 c #838F9C",
"6 c #8796B0",
"7 c #FBC5AC",
"8 c #FCC5AC",
"9 c #A4E6C5",
"0 c #C7CFD7",
"q c #E6E3E8",
"w c #E6E4E9",
"e c #EFEFEF",
"r c #F3F3F3",
"t c #F6F6F6",
"y c #F3F6FF",
/* pixels */
"222222222222222222222222222222222 222 22222222222222222222222222",
"22222222222222222222222222 22222 ,22 ,22222222222222222222222222",
"22222222222222222222222222  222 ,,  ,, 222 222222222222222222222",
"22222222222222222222222222  222 ,,  ,, 222 222222222222222222222",
"22222222222222222222222222 ,   :,,::,,     222222222222222222222",
"222222222222222221111      ,::::,,,,,, ::, 222222222222222222222",
"2222222222222222211112 ,,,::,,::,,,,,,:,,,    222222222222222222",
"22222222222222222111122  ,,:::,:,,,,,:,,,:,,  222222222222222222",
"22222222222222222111122  ,,:::,:,,,,,:,,,:,,  222222222222222222",
"22221111122222222111122   ,,,,,,,,,,,,,,,,,:  222222222222222222",
"222211111222222221111    ,:,,,,,,,,,,,,,,,: 22222222222222222222",
"22221111122222222111  ,,,,,,,,,,,,,,,,,,,,,,  222222222222222222",
"2222111112222222211112 :::,,,,,,,,,,,,,,,,: 22222222222222222222",
"2222111112222222211112 :::,,,,,,,,,,,,,,,,: 22222222222222222222",
"22222222211112222222222  ::,,,,,:,,,,:,::,,:  222222222222222222",
"22222222211112222222222   @,,,,:0e,,:5500:,,   22222222222222222",
"22222222211112222222222  :@:,,,<0e::55000:, 22222222222222222222",
"22222222211112222222222  : :,,,<<<<<<<<<<<, 22222222222222222222",
"2222222222222222222222 :::8 ,,,>>>88888>> , 22222222222222222222",
"2222222222222222222222 :::8 ,,,>>>88888>> , 22222222222222222222",
"2222222222222222222222 :: 8>,,,>++88888>> , 22222222222222222222",
"2222222222222222222222 :: 88,,,8r3+++8+++ , 22222222222222222222",
"22222222222222222222222  wwwwwwq8333r>3     22222222222222222222",
"22222222222222222222222  ww    8>88888>  w 222222222222222222222",
"22222222222222222222222  ww    8>88888>  w 222222222222222222222",
"22222222222222222222222  w 8>>> 8>888> 44w 222222222222222222222",
"222222222222222222222    4 >ooo8 888> 4www 222222222222222222222",
"22222222222222222222 4wwww4 **ooo    4www  222222222222222222222",
"22222222222222222222 ww44www  *ooo&&  4     22222222222222222222",
"22222222222222222222 ww44www  *ooo&&  4     22222222222222222222",
"222222222222222222  www444wwww**oo&&&& 44ww 22222222222222222222",
"222222222222222222  www44 wwwww**ooo&&w44ww 22222222222222222222",
"222222222222222222  ww444 wwwww4;*oo Owwwww 99922222222222222222",
"222222222222222222  &&O   4wwwww;;yy; 4www 999922222222222222222",
"22222222222222222 &&&O   44wwwww;%66%;     999922222222222222222",
"22222222222222222 &&&O   44wwwww;%66%;     999922222222222222222",
"22222222222222222 &&&&   44wwwww;;yy;;www 2999922222222222222222",
"222222222222222222  OO&  444wwww;;yy;;www 2999922222222999992222",
"22222222222222222222 O&yy   44qw;;yy;;www 2999922222222999992222",
"222222222222222222222 6&&888  qw%%66%%%ww 2999922222222999992222",
"222222222222222222222 6&&888  qw%%66%%%ww 2999922222222999992222",
"2222222222222222222222   8>8  qw;;;;y;;ww4 222222229999222222222",
"2222222222222222222222 ww 7>wwqq;;;;w;;www 222222229999222222222",
"222222222222222222222 -wwwww--qq&O&&O&Oww- 222222229999222222222",
"222222222222222222222 wwww-wqqq&&O&&O&&44w 222222229999222222222",
"222222222222222222222 wwww-wqqq&&O&&O&&44w 222222229999222222222",
"222222222222222222222 -ww-ww--w&&OOO&&&  - 222222222222222222222",
"22222222222222222222 =-ww-----ttO OO&&&  w- 22222222222222222222",
"22222222222222222222 ---------$$  OO&&&  -- 22222222222222222222",
"22222222222222222222 ---------t = OO&&&  =- 22222222222222222222",
"22222222222222222222 -------== == &&O&&  =- 22222222222222222222",
"22222222222222222222 -------== == &&O&&  =- 22222222222222222222",
"22222222222222222222 -------&& == OO&&&  =- 22222222222222222222",
"22222222222222222222 ------=      OOOOO  =- 22222222222222222222",
"22222222222222222222   &&&&O  222 OOOO&     22222222222222222222",
"2222222222222222222222 &&&O 22222 &&&&O  22222222222222222222222",
"2222222222222222222222 &&&O 22222 &&&&O  22222222222222222222222",
"2222222222222222222222 tttt 222222  66 2222222222222222222222222",
"2222222222222222222222 666 2222222  66 2222222222222222222222222",
"2222222222222222222222 ### 222222222 . 2222222222222222222222222",
"2222222222222222222222 XX 2222222222 .X   2222222222222222222222",
"2222222222222222222222 XX 2222222222 .X   2222222222222222222222",
"222222222222222222222 ### 2222222222 XX>>> 222222222222222222222",
"222222222222222222222 888 22222222222222222222222222222222222222"
};
