/* XPM */
static char *f21f421b7096463cd3b5a73fee0448dbmx5E9w9ZfCFW5fSh[] = {
/* columns rows colors chars-per-pixel */
"64 64 12 1 ",
"  c #73CDA4",
". c #399431",
"X c #BDFF8B",
"o c #83D562",
"O c #395200",
"+ c #397318",
"@ c #41B48B",
"# c #395A10",
"$ c #A4E6C5",
"% c #413931",
"& c #836A52",
"* c #62414A",
/* pixels */
"                         ..XXX.ooo.XXX..o                       ",
"                      oo.XoXXoXXXXXoXXoX.oo                     ",
"                      oo.XoXXoXXXXXoXXoX.oo                     ",
"                      ..oXXXXXXXXXXXXXXXo...                    ",
"                   .O.XXXoXXXXXXXXXXXXXoXXX.O.OO                ",
"                O...OO..XoXXXXXXXXXXXXXoX.......O               ",
"               +++++X.ooXXXXXXXXXXXXXXXXXoo.X+++++              ",
"               +++++X.ooXXXXXXXXXXXXXXXXXoo.X+++++              ",
"              +OOXXX.XoooXXooXXXXXXXooXXoooX.XXXOO+             ",
"    @@@@@   +++XoXX.XoooXXXXXooXXXooXXXXXoooX.XXoX+++           ",
"    @@@@@  +++oo.oo.XoooXXXXXXXXXXXXXXXXXoooX.oo.oo++++         ",
"    @@@@@ +XXXoXXXXo.oooooXXXXXXXXXXXXXooooo.oXXXXoXXX++        ",
"    @@@@@ +XXXoXXXXo.oooooXXXXXXXXXXXXXooooo.oXXXXoXXX++        ",
"    @@@@@+ooooXXXXXoooooooXXXXXoooXXXXXoooooooXXXXXoooo+        ",
"       ..+OXXXXXXXX..o..oooooXoooooXooooo..o..XXXXXXXXO+..      ",
"       ..XXXXXXXXooo..oo.ooooooooooooooo.oo..oooXXXXXXXX..      ",
"       ##XXXoooXoooooo...o.ooooooooooo.o...ooooooXoooXXX##      ",
"       ##XXXoooXoooooo...o.ooooooooooo.o...ooooooXoooXXX##      ",
"      #ooXXo..oXXooXX.ooO..ooo.ooo.ooo..Ooo.XXooXXo..oXXoo#     ",
"     .#ooooooooXXXXXXX...OO..O.ooo.O..OO...XXXXXXXoooooooo#.    ",
"     .#ooooXXXXXXXXXXXXXo..OO.OoooO.OO..oXXXXXXXXXXXXXoooo#.    ",
"     .#ooXoXXXXXXXXXXXXXo....oo...oo....oXXXXXXXXXXXXXoXoo#.    ",
"     .#ooXoXXXXXXXXXXXXXo....oo...oo....oXXXXXXXXXXXXXoXoo#.    ",
"     ..###XXXXXXXXXXXXXXoooooXXoooXXoooooXXXXXXXXXXXXXX###..    ",
"     .#ooooXXXXXXXXXXXXXXXoooXXXXXXXoooXXXXXXXXXXXXXXXoooo#.    ",
"     #oXXoXXXXXXXoooXXooXXXXXXXXXXXXXXXXXooXXoooXXXXXXXoXXo#    ",
"     Oooo..oXXXXooooo.ooXXXooXXXXXXXooXXXoo.oooooXXXXo..oooO    ",
"     Oooo..oXXXXooooo.ooXXXooXXXXXXXooXXXoo.oooooXXXXo..oooO    ",
"    OoXoo.o.ooooXXXoo.XXXXXXXooXXXooXXXXXXX.ooXXXoooo.o.ooXoO   ",
"    OooXXo....ooXXXo..XXoXXXXXXXXXXXXXXXoXX..oXXXoo....oXXooO   ",
"    ..XooXo.....ooo.O...oXXXXXXXXXXXXXXXo...O.ooo.....oXooX..   ",
"    .ooXXooo........OO...ooXXXXoooXXXXoo...OO........oooXXoo.   ",
"    .ooXXooo........OO...ooXXXXoooXXXXoo...OO........oooXXoo.   ",
"    Ooooooo.oo...OOOOO.....ooooooooooo.....OOOOO...oo.ooooooO   ",
"    O..ooo.ooo..OOO.OOOOO......ooo......OOOOO.OOO..ooo.ooo..O   ",
"    .......o..O.Ooo.....OO.............OO.....ooO.O..o.......   ",
"    .O......ooO.ooooo.ooO....o.....o....Ooo.ooooo.Ooo......O.   ",
"    .O......ooO.ooooo.ooO....o.....o....Ooo.ooooo.Ooo......O.   ",
"     .OOOOO.....ooooooooo..oooo...oooo..ooooooooo.....OOOOO.    ",
"     ..OOOO....o.oooooooo..ooo.....ooo..oooooooo.o....OOOO..    ",
"      ...OOOOOo.ooooooooo..OOo.....oOO..ooooooooo.oOOOOO...$    ",
"         ..OOOOoo..o.ooo..OOO.......OOO..ooo.o..ooOOOO..        ",
"         ..OOOOoo..o.ooo..OOO.......OOO..ooo.o..ooOOOO..        ",
"          ..OOO.O........O.OOO.OOO.OOO.O........O.OOO..         ",
"          ....OO.OO.O...OOOOOOOOOOOOOOOOO...O.OO.OO....         ",
"         ......OO.....OOOOO%%%%OOO%%%%OOOOO.....OO......        ",
"      .....+++++OOOOO+OOOOO%%&%%%%%&%%OOOOO+OOOOO+++++.....     ",
"      .....+++++OOOOO+OOOOO%%&%%%%%&%%OOOOO+OOOOO+++++.....     ",
"     .....+++++++++OOOOOOOO%%&*****&%%OOOOOOOO+++++++++.....    ",
"     ....++++++++OOOOOOOOOO%%&*****&%%OOOOOOOOOO++++++++....    ",
"     ....++++++++OOOOOOOOOOOO%*****%OOOOOOOOOOOO++++++++....    ",
"     ....++++++++OOOOOOOOOOOOO%%%%%OOOOOOOOOOOOO++++++++....    ",
"     ....++++++++OOOOOOOOOOOOO%%%%%OOOOOOOOOOOOO++++++++....    ",
"     ....++++++++++OOOOOOOOOOOOOOOOOOOOOOOOOOO++++++++++....    ",
"      ....+++++++++++OOOOOOOOOOOOOOOOOOOOOOO+++++++++++....     ",
"      .....+++++++++++++OOOOOOOOOOOOOOOOO+++++++++++++.....     ",
"       .......+++++++++++++OOOOOOOOOOO+++++++++++++.......      ",
"       .......+++++++++++++OOOOOOOOOOO+++++++++++++.......      ",
"          ......+++++++++++++++++++++++++++++++++......         ",
"            ........+++++++++++++++++++++++++........           ",
"               .........+++++++++++++++++.........              ",
"                    .........................                   ",
"                    .........................                   ",
"                          .............                         "
};
