/* XPM */
static char *_b1f9cecb9b84c57aee6460dbbe8c0c9lxCDuh7n8NOjazt3[] = {
/* columns rows colors chars-per-pixel */
"62 64 12 1 ",
"  c #413931",
". c #395200",
"X c #395A10",
"o c #397318",
"O c #62414A",
"+ c #836A52",
"@ c #399431",
"# c #18A46A",
"$ c #83D562",
"% c #41B48B",
"& c #73CDA4",
"* c #BDFF8B",
/* pixels */
"&&%%@@....@@@@$@$$$$$$$$@@@@@$@@$@@@@@$$$$$$$$@$@@@@....@@%%&&",
"&&%%%@@.....$$@$$$$$$$$$@@***@$$@***@@$$$$$$$$$@$$.....@@%%%&&",
"&&&&%##@@@....$$@$$@$$@@*$*$$****$$*$*@@$$@$$@$$....@@@##%&&&&",
"&&&&%##@@@....$$@$$@$$@@*$*$$****$$*$*@@$$@$$@$$....@@@##%&&&&",
"&&&&&####@@...@.@@@@@@$$**************$$@@@@@@.@...@@####&&&&&",
"&&&&%####@@@...@.@@.@***$************$***@.@@.@...@@@####%&&&&",
"&&%%%##@@@@ooo..@@@..@**$************$**@@@@@@..@@@@@@@##%%%&&",
"%%%%##@@@@ooooooooo*@$******************$@*ooooooooo@@@@##%%%%",
"%%%%##@@@@ooooooooo*@$******************$@*ooooooooo@@@@##%%%%",
"%%###@@ooooooo..***@*$$$**$********$**$$$*@***..ooooooo@@###%%",
"%%###@oooooooo*$*@@*$$*****$$$**$$$*****$$*@@*$*oooooooo@###%%",
"%%###@oooooo$$$@$@@*$$******************$$*@@$@$$$oooooo@###%%",
"%%###@oooo**$$***$$@$$$$$************$$$$$@$$***$$**oooo@###%%",
"%%###@oooo**$$***$$@$$$$$************$$$$$@$$***$$**oooo@###%%",
"%%%%#@ooo$$$*****$$$$$$$$*****$$*****$$$$$$$$*****$$$ooo@#%%%%",
"&&%%##@oo.*******@@@$@$$$$$**$$$$**$$$$$@$@@@*******.oo@##%%&&",
"&&%%#@@*********$$$@@$@@$$$$$$$$$$$$$$@@$@@$$$*********@@#%%&&",
"&&&&#@X****$$$*$$$$$$@@@$@$$$$$$$$$$@$@@@$$$$$$*$$$****X@#&&&&",
"&&&&#X$***$@$$**$***@$..@@$$$@$$@$$$@@..$@***$**$$@$***$X#&&&&",
"&&&&#X$***$@$$**$***@$..@@$$$@$$@$$$@@..$@***$**$$@$***$X#&&&&",
"&&&&@X$$$$$$$$*******@@@..@..@$$@..@..@@@*******$$$$$$$$X@&&&&",
"&&&&@X$$$$************$$@@.@@.$$.@@.@@$$************$$$$X@&&&&",
"&&%%@X$**$************$$@@@$$$@@$$$@@@$$************$**$X@%%&&",
"&&%%@@XXX*************$$$$$***$$***$$$$$*************XXX@@%%&&",
"&&%%@@XXX*************$$$$$***$$***$$$$$*************XXX@@%%&&",
"%%%%@X$$$$***************$$********$$***************$$$$X@%%%%",
"%%##X$*$$*******$$$**$******************$**$$$*******$$*$X##%%",
"####.$$@@@$****$$$$$@$****$********$****$@$$$$$****$@@@$$.####",
"##..$*$@@$@$$$$**$$$@******$$$**$$$******@$$$**$$$$@$@@$*$..##",
"##..$*$@@$@$$$$**$$$@******$$$**$$$******@$$$**$$$$@$@@$*$..##",
"##..$$*$$@@@$$$**$$@@*$$**************$$*@@$$**$$$@@@$$*$$..##",
"##@@@*$**$@@@@@$$@@.@@$$**************$$@@.@@$$@@@@@$**$*@@@##",
"##@@$$*$$$$@@@@@@@@..@@@$$****$$****$$@@@..@@@@@@@@$$$$*$$@@##",
"##..$$$$$$@$@@@@.....@@@@@$$$$$$$$$$@@@@@.....@@@@$@$$$$$$..##",
"##..@@$$$@$$@@@..@@.....@@@@@@$$@@@@@@.....@@..@@@$$@$$$@@..##",
"##..@@$$$@$$@@@..@@.....@@@@@@$$@@@@@@.....@@..@@@$$@$$$@@..##",
"##@@@@@@@@$@..@.$@@@@@...@@@@@@@@@@@@...@@@@@$.@..@$@@@@@@@@##",
"%%@@.@@@@@@$..@$$$$$@$..@@@$$@@@@$$@@@..$@$$$$$@..$@@@@@@.@@%%",
"%%%%@.....@@@@@$$$$$$$$$@@$$$$@@$$$$@@$$$$$$$$$@@@@@.....@%%%%",
"&&%%@@....@@@@$@$$$$$$$$@@$$$@@@@$$$@@$$$$$$$$@$@@@@....@@%%&&",
"&&%%@@....@@@@$@$$$$$$$$@@$$$@@@@$$$@@$$$$$$$$@$@@@@....@@%%&&",
"&&%%%@@.....$$@$$$$$$$$$@@.$$@@@@$$.@@$$$$$$$$$@$$.....@@%%%&&",
"&&&&%##@@@....$$@$$@$$@@@..@@@@@@@@..@@@$$@$$@$$....@@@##%&&&&",
"&&&&&####@@...@.@@@@@@@@.@...@..@...@.@@@@@@@@.@...@@####&&&&&",
"&&&&%####@@@...@.@@.@@..................@@.@@.@...@@@####%&&&&",
"&&&&%####@@@...@.@@.@@..................@@.@@.@...@@@####%&&&&",
"&&%%%##@@@@@@@..@@@@@.....    ..    .....@@@@@..@@@@@@@##%%%&&",
"%%%%#@@@@@ooooo.....o..... ++    ++ .....o.....ooooo@@@@@#%%%%",
"%%%%@@@@@oooooooo......... ++OOOO++ .........oooooooo@@@@@%%%%",
"%%##@@@ooooooooo.......... ++OOOO++ ..........ooooooooo@@@##%%",
"%%##@@@ooooooooo...........  OOOO  ...........ooooooooo@@@##%%",
"%%##@@@ooooooooo...........  OOOO  ...........ooooooooo@@@##%%",
"%%##@@@ooooooooo.............    .............ooooooooo@@@##%%",
"%%%%@@@oooooooooo............................oooooooooo@@@%%%%",
"%%%%#@@@@ooooooooooo......................ooooooooooo@@@@#%%%%",
"&&%%%@@@@@oooooooooooo..................oooooooooooo@@@@@%%%&&",
"&&%%%@@@@@oooooooooooo..................oooooooooooo@@@@@%%%&&",
"&&%%%%@@@@@@oooooooooooooo..........oooooooooooooo@@@@@@%%%%&&",
"&&&&%%%##@@@@@@oooooooooooooooooooooooooooooooo@@@@@@##%%%&&&&",
"&&&&&%%%%%#@@@@@@@@oooooooooooooooooooooooo@@@@@@@@#%%%%%&&&&&",
"&&&&&&%%%%%%##@@@@@@@@oooooooooooooooooo@@@@@@@@##%%%%%%&&&&&&",
"&&&&&&%%%%%%##@@@@@@@@oooooooooooooooooo@@@@@@@@##%%%%%%&&&&&&",
"&&&&&&&&&%%%%%%%###@@@@@@@@@@@@@@@@@@@@@@@@###%%%%%%%&&&&&&&&&",
"&&&&&&&&&&&%%%%%%%%%%####@@@@@@@@@@@@####%%%%%%%%%%&&&&&&&&&&&"
};
